<?xml version="1.0" encoding="iso-8859-1"?>
<svg fill="#000000" height="800px" width="800px" version="1.1" id="Layer_1" xmlns="http://www.w3.org/2000/svg" xmlns:xlink="http://www.w3.org/1999/xlink" 
	 viewBox="0 0 512.001 512.001" xml:space="preserve">
<g>
	<g>
		<path d="M482.609,76.954h-34.204l31.564-42.083c0.026-0.034,0.052-0.07,0.078-0.106c7.084-9.774,4.895-23.502-4.887-30.608
			c-9.758-7.071-23.453-4.901-30.563,4.828l-50.981,67.969H29.392c-10.314,0-18.706,8.392-18.706,18.706v12.827
			c0,10.314,8.392,18.706,18.706,18.706h36.877V312.9c0,4.428,3.589,8.017,8.017,8.017s8.017-3.588,8.017-8.017v-44.611h167.799
			L108.994,456.417c-0.026,0.034-0.052,0.07-0.078,0.106c-7.084,9.775-4.896,23.503,4.895,30.614
			c3.765,2.721,8.205,4.16,12.842,4.16c6.978,0,13.592-3.359,17.71-8.987l159.729-212.95c0.167-0.222,0.321-0.451,0.461-0.684
			c0.08-0.134,0.162-0.254,0.243-0.385h120.629v192.938c0,19.156-15.585,34.74-34.74,34.74H117.042
			c-19.155,0-34.74-15.584-34.74-34.74V352.199c0-4.428-3.589-8.017-8.017-8.017s-8.017,3.588-8.017,8.017v109.029
			c0,27.996,22.777,50.773,50.773,50.773h273.641c27.996,0,50.773-22.777,50.773-50.773V127.194h41.153
			c10.314,0,18.706-8.392,18.706-18.706V95.661C501.315,85.346,492.924,76.954,482.609,76.954z M457.458,18.56
			c0.025-0.032,0.049-0.066,0.074-0.099c1.909-2.628,5.596-3.223,8.212-1.324c2.616,1.898,3.215,5.557,1.351,8.178l-38.731,51.64
			h-14.706L457.458,18.56z M401.632,92.988h14.706l-13.63,18.171h-14.706L401.632,92.988z M29.392,111.159
			c-1.473,0-2.672-1.198-2.672-2.672V95.66c0-1.474,1.199-2.672,2.672-2.672H381.59l-13.63,18.171H29.392z M82.303,252.255V127.193
			h273.631l-93.805,125.062H82.303z M131.505,472.729c-0.025,0.032-0.048,0.065-0.073,0.098c-1.124,1.548-2.867,2.435-4.78,2.435
			c-0.867,0-2.168-0.195-3.434-1.109c-2.615-1.898-3.214-5.556-1.351-8.176L270.144,268.29h14.706L131.505,472.729z
			 M425.424,252.255h-0.001H316.287c3.329-4.229,6.435-8.426,9.447-12.513c4.74-6.43,9.215-12.502,14.316-18.361
			c2.907-3.339,2.557-8.403-0.782-11.31c-3.34-2.91-8.404-2.558-11.311,0.781c-5.527,6.349-10.409,12.972-15.129,19.375
			c-3.718,5.044-7.561,10.259-11.724,15.346c-0.246,0.3-0.469,0.619-0.669,0.952c-1.268,2.112-2.577,3.894-3.951,5.727h-14.312
			l93.805-125.062h14.35l-42.313,54.403c-2.718,3.495-2.089,8.531,1.406,11.249c1.463,1.137,3.196,1.689,4.916,1.689
			c2.389,0,4.753-1.064,6.333-3.096l49.969-64.246h14.785V252.255z M482.609,111.159h-59.859l13.629-18.171h46.229
			c1.473,0,2.672,1.198,2.672,2.672v12.827h0.001C485.282,109.961,484.082,111.159,482.609,111.159z"/>
	</g>
</g>
<g>
	<g>
		<path d="M167.816,272.565c-14.735,0-26.723,11.988-26.723,26.723s11.988,26.723,26.723,26.723s26.723-11.988,26.723-26.723
			S182.551,272.565,167.816,272.565z M167.816,309.977c-5.894,0-10.689-4.795-10.689-10.689c0-5.894,4.795-10.689,10.689-10.689
			s10.689,4.795,10.689,10.689S173.71,309.977,167.816,309.977z"/>
	</g>
</g>
<g>
	<g>
		<path d="M365.564,272.565c-14.735,0-26.723,11.988-26.723,26.723s11.988,26.723,26.723,26.723s26.723-11.988,26.723-26.723
			S380.299,272.565,365.564,272.565z M365.564,309.977c-5.894,0-10.689-4.795-10.689-10.689s4.795-10.689,10.689-10.689
			s10.689,4.795,10.689,10.689S371.458,309.977,365.564,309.977z"/>
	</g>
</g>
<g>
	<g>
		<path d="M272.569,433.97c-14.735,0-26.723,11.988-26.723,26.723s11.988,26.723,26.723,26.723s26.723-11.988,26.723-26.723
			S287.304,433.97,272.569,433.97z M272.569,471.382c-5.894,0-10.689-4.795-10.689-10.689s4.795-10.689,10.689-10.689
			s10.689,4.795,10.689,10.689S278.463,471.382,272.569,471.382z"/>
	</g>
</g>
<g>
	<g>
		<path d="M272.569,354.871c-14.735,0-26.723,11.988-26.723,26.723c0,14.735,11.988,26.723,26.723,26.723
			s26.723-11.988,26.723-26.723C299.292,366.859,287.304,354.871,272.569,354.871z M272.569,392.283
			c-5.894,0-10.689-4.795-10.689-10.689c0-5.894,4.795-10.689,10.689-10.689s10.689,4.795,10.689,10.689
			C283.258,387.487,278.463,392.283,272.569,392.283z"/>
	</g>
</g>
<g>
	<g>
		<path d="M365.564,354.871c-14.735,0-26.723,11.988-26.723,26.723c0,14.735,11.988,26.723,26.723,26.723
			s26.723-11.988,26.723-26.723C392.287,366.859,380.299,354.871,365.564,354.871z M365.564,392.283
			c-5.894,0-10.689-4.795-10.689-10.689c0-5.894,4.795-10.689,10.689-10.689s10.689,4.795,10.689,10.689
			C376.253,387.487,371.458,392.283,365.564,392.283z"/>
	</g>
</g>
<g>
	<g>
		<path d="M365.564,433.97c-14.735,0-26.723,11.988-26.723,26.723s11.988,26.723,26.723,26.723s26.723-11.988,26.723-26.723
			S380.299,433.97,365.564,433.97z M365.564,471.382c-5.894,0-10.689-4.795-10.689-10.689s4.795-10.689,10.689-10.689
			s10.689,4.795,10.689,10.689S371.458,471.382,365.564,471.382z"/>
	</g>
</g>
</svg>
